<?xml version="1.0" encoding="UTF-8"?>
<svg xmlns="http://www.w3.org/2000/svg" xmlns:xlink="http://www.w3.org/1999/xlink" width="375pt" height="374.999991pt" viewBox="0 0 375 374.999991" version="1.1">
<defs>
<clipPath id="clip1">
  <path d="M 12.660156 4.378906 L 368.160156 4.378906 L 368.160156 371.878906 L 12.660156 371.878906 Z M 12.660156 4.378906 "/>
</clipPath>
<clipPath id="clip2">
  <path d="M 143 164 L 235 164 L 235 313 L 143 313 Z M 143 164 "/>
</clipPath>
<clipPath id="clip3">
  <path d="M 143.273438 351.011719 L 69.519531 60.21875 L 212.734375 23.894531 L 286.488281 314.6875 Z M 143.273438 351.011719 "/>
</clipPath>
<clipPath id="clip4">
  <path d="M 99 48 L 247 48 L 247 327 L 99 327 Z M 99 48 "/>
</clipPath>
<clipPath id="clip5">
  <path d="M 143.273438 351.011719 L 69.519531 60.21875 L 212.734375 23.894531 L 286.488281 314.6875 Z M 143.273438 351.011719 "/>
</clipPath>
<clipPath id="clip6">
  <path d="M 91 40 L 253 40 L 253 333 L 91 333 Z M 91 40 "/>
</clipPath>
<clipPath id="clip7">
  <path d="M 143.273438 351.011719 L 69.519531 60.21875 L 212.734375 23.894531 L 286.488281 314.6875 Z M 143.273438 351.011719 "/>
</clipPath>
<clipPath id="clip8">
  <path d="M 135 157 L 242 157 L 242 320 L 135 320 Z M 135 157 "/>
</clipPath>
<clipPath id="clip9">
  <path d="M 143.273438 351.011719 L 69.519531 60.21875 L 212.734375 23.894531 L 286.488281 314.6875 Z M 143.273438 351.011719 "/>
</clipPath>
<clipPath id="clip10">
  <path d="M 216 211 L 260 211 L 260 229 L 216 229 Z M 216 211 "/>
</clipPath>
<clipPath id="clip11">
  <path d="M 143.273438 351.011719 L 69.519531 60.21875 L 212.734375 23.894531 L 286.488281 314.6875 Z M 143.273438 351.011719 "/>
</clipPath>
<clipPath id="clip12">
  <path d="M 213 206 L 235 206 L 235 219 L 213 219 Z M 213 206 "/>
</clipPath>
<clipPath id="clip13">
  <path d="M 143.273438 351.011719 L 69.519531 60.21875 L 212.734375 23.894531 L 286.488281 314.6875 Z M 143.273438 351.011719 "/>
</clipPath>
<clipPath id="clip14">
  <path d="M 209 197 L 232 197 L 232 210 L 209 210 Z M 209 197 "/>
</clipPath>
<clipPath id="clip15">
  <path d="M 143.273438 351.011719 L 69.519531 60.21875 L 212.734375 23.894531 L 286.488281 314.6875 Z M 143.273438 351.011719 "/>
</clipPath>
<clipPath id="clip16">
  <path d="M 206 186 L 238 186 L 238 202 L 206 202 Z M 206 186 "/>
</clipPath>
<clipPath id="clip17">
  <path d="M 143.273438 351.011719 L 69.519531 60.21875 L 212.734375 23.894531 L 286.488281 314.6875 Z M 143.273438 351.011719 "/>
</clipPath>
<clipPath id="clip18">
  <path d="M 202 179 L 225 179 L 225 193 L 202 193 Z M 202 179 "/>
</clipPath>
<clipPath id="clip19">
  <path d="M 143.273438 351.011719 L 69.519531 60.21875 L 212.734375 23.894531 L 286.488281 314.6875 Z M 143.273438 351.011719 "/>
</clipPath>
<clipPath id="clip20">
  <path d="M 199 170 L 220 170 L 220 181 L 199 181 Z M 199 170 "/>
</clipPath>
<clipPath id="clip21">
  <path d="M 143.273438 351.011719 L 69.519531 60.21875 L 212.734375 23.894531 L 286.488281 314.6875 Z M 143.273438 351.011719 "/>
</clipPath>
<clipPath id="clip22">
  <path d="M 195 155 L 242 155 L 242 173 L 195 173 Z M 195 155 "/>
</clipPath>
<clipPath id="clip23">
  <path d="M 143.273438 351.011719 L 69.519531 60.21875 L 212.734375 23.894531 L 286.488281 314.6875 Z M 143.273438 351.011719 "/>
</clipPath>
<clipPath id="clip24">
  <path d="M 193 150 L 218 150 L 218 163 L 193 163 Z M 193 150 "/>
</clipPath>
<clipPath id="clip25">
  <path d="M 143.273438 351.011719 L 69.519531 60.21875 L 212.734375 23.894531 L 286.488281 314.6875 Z M 143.273438 351.011719 "/>
</clipPath>
<clipPath id="clip26">
  <path d="M 191 143 L 212 143 L 212 155 L 191 155 Z M 191 143 "/>
</clipPath>
<clipPath id="clip27">
  <path d="M 143.273438 351.011719 L 69.519531 60.21875 L 212.734375 23.894531 L 286.488281 314.6875 Z M 143.273438 351.011719 "/>
</clipPath>
<clipPath id="clip28">
  <path d="M 188 128 L 218 128 L 218 145 L 188 145 Z M 188 128 "/>
</clipPath>
<clipPath id="clip29">
  <path d="M 143.273438 351.011719 L 69.519531 60.21875 L 212.734375 23.894531 L 286.488281 314.6875 Z M 143.273438 351.011719 "/>
</clipPath>
<clipPath id="clip30">
  <path d="M 185 123 L 209 123 L 209 137 L 185 137 Z M 185 123 "/>
</clipPath>
<clipPath id="clip31">
  <path d="M 143.273438 351.011719 L 69.519531 60.21875 L 212.734375 23.894531 L 286.488281 314.6875 Z M 143.273438 351.011719 "/>
</clipPath>
<clipPath id="clip32">
  <path d="M 184 115 L 205 115 L 205 128 L 184 128 Z M 184 115 "/>
</clipPath>
<clipPath id="clip33">
  <path d="M 143.273438 351.011719 L 69.519531 60.21875 L 212.734375 23.894531 L 286.488281 314.6875 Z M 143.273438 351.011719 "/>
</clipPath>
<clipPath id="clip34">
  <path d="M 179 95 L 227 95 L 227 120 L 179 120 Z M 179 95 "/>
</clipPath>
<clipPath id="clip35">
  <path d="M 143.273438 351.011719 L 69.519531 60.21875 L 212.734375 23.894531 L 286.488281 314.6875 Z M 143.273438 351.011719 "/>
</clipPath>
<clipPath id="clip36">
  <path d="M 177 94 L 200 94 L 200 109 L 177 109 Z M 177 94 "/>
</clipPath>
<clipPath id="clip37">
  <path d="M 143.273438 351.011719 L 69.519531 60.21875 L 212.734375 23.894531 L 286.488281 314.6875 Z M 143.273438 351.011719 "/>
</clipPath>
<clipPath id="clip38">
  <path d="M 175 86 L 197 86 L 197 100 L 175 100 Z M 175 86 "/>
</clipPath>
<clipPath id="clip39">
  <path d="M 143.273438 351.011719 L 69.519531 60.21875 L 212.734375 23.894531 L 286.488281 314.6875 Z M 143.273438 351.011719 "/>
</clipPath>
<clipPath id="clip40">
  <path d="M 171 72 L 203 72 L 203 92 L 171 92 Z M 171 72 "/>
</clipPath>
<clipPath id="clip41">
  <path d="M 143.273438 351.011719 L 69.519531 60.21875 L 212.734375 23.894531 L 286.488281 314.6875 Z M 143.273438 351.011719 "/>
</clipPath>
<clipPath id="clip42">
  <path d="M 169 67 L 193 67 L 193 82 L 169 82 Z M 169 67 "/>
</clipPath>
<clipPath id="clip43">
  <path d="M 143.273438 351.011719 L 69.519531 60.21875 L 212.734375 23.894531 L 286.488281 314.6875 Z M 143.273438 351.011719 "/>
</clipPath>
<clipPath id="clip44">
  <path d="M 166 57 L 191 57 L 191 71 L 166 71 Z M 166 57 "/>
</clipPath>
<clipPath id="clip45">
  <path d="M 143.273438 351.011719 L 69.519531 60.21875 L 212.734375 23.894531 L 286.488281 314.6875 Z M 143.273438 351.011719 "/>
</clipPath>
<clipPath id="clip46">
  <path d="M 161 40 L 201 40 L 201 61 L 161 61 Z M 161 40 "/>
</clipPath>
<clipPath id="clip47">
  <path d="M 143.273438 351.011719 L 69.519531 60.21875 L 212.734375 23.894531 L 286.488281 314.6875 Z M 143.273438 351.011719 "/>
</clipPath>
</defs>
<g id="surface1">
<rect x="0" y="0" width="375" height="374.999991" style="fill:rgb(100%,100%,100%);fill-opacity:1;stroke:none;"/>
<rect x="0" y="0" width="375" height="374.999991" style="fill:rgb(100%,100%,100%);fill-opacity:1;stroke:none;"/>
<g clip-path="url(#clip1)" clip-rule="nonzero">
<path style=" stroke:none;fill-rule:nonzero;fill:rgb(83.529663%,89.7995%,89.7995%);fill-opacity:1;" d="M 12.316406 218.574219 L 12.128906 211.09375 C 13.703125 215.480469 12.402344 215.425781 12.316406 218.574219 Z M 16.125 221.289063 L 16.746094 216.515625 L 15.324219 216.277344 Z M 234.101563 362.824219 L 234.304688 362.558594 C 233.5625 362.703125 232.882813 362.835938 232.183594 362.984375 Z M 12.351563 219.964844 L 12.316406 218.574219 C 12.308594 218.980469 12.3125 219.433594 12.351563 219.964844 Z M 359.378906 142.832031 L 360.667969 143.433594 C 359.933594 141.105469 359.597656 141.726563 359.378906 142.832031 Z M 352.269531 109.90625 C 351.84375 111.398438 351.722656 112.90625 351.753906 114.382813 C 352.734375 114.5 353.109375 112.816406 352.269531 109.90625 Z M 143.230469 8.074219 C 142.886719 8.039063 142.460938 8.023438 141.910156 8.023438 C 141.910156 8.023438 142.441406 8.042969 143.230469 8.074219 Z M 367.425781 190.597656 C 367.964844 192.625 368.304688 194.664063 368.304688 194.664063 C 362.800781 195.242188 367.214844 206.105469 362.070313 207.003906 C 361.183594 216.019531 365.34375 206.105469 364.507813 209.265625 C 364.523438 213.574219 362.597656 219.308594 361.0625 224.253906 C 360.671875 225.492188 360.296875 226.691406 359.949219 227.800781 C 359.515625 228.898438 359.144531 229.925781 358.863281 230.851563 C 358.300781 232.707031 358.101563 234.171875 358.550781 235.023438 C 356.683594 238.347656 355.710938 242.023438 354.527344 245.5 C 353.207031 248.925781 352.027344 252.253906 350.460938 254.945313 L 352.5 256.199219 C 351.644531 257.59375 350.699219 259.136719 349.769531 260.644531 C 348.835938 262.152344 347.839844 263.609375 347.359375 265.125 C 347.691406 265.253906 348.167969 265.011719 348.714844 264.542969 C 347.082031 267.132813 345.589844 269.605469 344.199219 272.007813 C 342.789063 274.402344 341.609375 276.796875 340.070313 278.925781 C 337.246094 283.320313 334.542969 287.523438 331.757813 291.851563 C 333.421875 292.261719 334.253906 292.808594 337.816406 288.003906 C 336.421875 292.847656 331.824219 297.539063 326.917969 302.5625 C 325.6875 303.804688 324.421875 305.082031 323.15625 306.367188 C 321.792969 307.574219 320.414063 308.796875 319.039063 310.023438 C 316.332031 312.515625 313.738281 315.117188 311.457031 317.933594 L 313.003906 317.960938 C 313.148438 318.132813 305.808594 322.128906 305.808594 322.128906 C 307.542969 321.605469 307.285156 322.890625 307.996094 323.566406 C 305.480469 326.015625 302.777344 328.578125 300.015625 331.050781 C 297.105469 333.351563 294.011719 335.433594 291.066406 337.316406 C 285.710938 340.957031 280.164063 342.882813 276.042969 343.046875 C 277.109375 343.691406 272.128906 348.394531 279.023438 346.148438 C 265.546875 351.316406 249.351563 358.816406 234.300781 362.558594 L 234.484375 362.320313 L 227.976563 362.820313 L 227.59375 363.332031 L 232.179688 362.984375 C 229.125 363.5625 226.148438 364.046875 223.316406 364.359375 C 221.898438 364.5 220.535156 364.667969 219.1875 364.648438 C 217.832031 364.589844 216.523438 364.480469 215.273438 364.316406 C 214.445313 365.242188 213.3125 367.59375 209.757813 368.949219 C 209.621094 368.230469 208.464844 368.199219 206.675781 368.53125 C 204.882813 368.828125 202.476563 369.667969 199.761719 370.015625 C 194.371094 370.917969 187.902344 371.804688 184.089844 370.347656 C 183.082031 371.1875 187.363281 370.769531 184.730469 371.882813 C 179.878906 371.683594 174.460938 370.996094 168.746094 370.359375 C 165.878906 370.144531 162.980469 369.417969 160.023438 368.78125 C 157.074219 368.148438 154.070313 367.507813 151.042969 366.855469 C 147.996094 366.351563 145.039063 365.292969 142.042969 364.445313 C 139.050781 363.574219 136.058594 362.734375 133.078125 361.953125 C 127.167969 360.230469 121.523438 358.074219 115.902344 356.707031 C 116.335938 350.925781 98.683594 344.414063 90.199219 335.457031 C 85.8125 336.699219 95.023438 340.410156 96.539063 344.265625 C 91.109375 340.082031 93.148438 347.085938 84.125 338.355469 C 84.1875 338.839844 83.980469 339.066406 84.3125 339.464844 C 81.992188 337.195313 88.128906 337.472656 80.207031 332.796875 L 78.492188 334.457031 L 75.195313 328.132813 C 66.5 321.984375 59.160156 315.148438 52.871094 307.882813 C 51.265625 306.09375 49.597656 304.382813 48.050781 302.589844 C 46.578125 300.734375 45.113281 298.886719 43.648438 297.046875 C 40.710938 293.375 37.449219 289.957031 34.636719 286.144531 C 34.492188 284.898438 35.722656 284.714844 37.492188 286.386719 C 35.253906 282.8125 33.691406 278.398438 31.851563 274.074219 C 30.347656 269.554688 28.65625 265.074219 25.496094 261.269531 L 25.738281 264.007813 C 24.671875 262.375 23.800781 260.910156 23.089844 259.5625 C 22.453125 258.179688 22.050781 256.886719 21.695313 255.691406 C 21.015625 253.296875 20.726563 251.222656 20.503906 249.050781 C 20.308594 246.871094 20.074219 244.632813 19.75 241.828125 C 19.578125 238.96875 19.1875 235.589844 18.289063 231.222656 C 19.496094 235.050781 20.113281 244.558594 23.296875 244.4375 C 24.148438 242.527344 21.878906 233.917969 19.730469 231.316406 L 20.890625 231.527344 C 19.320313 225.144531 18.109375 218.625 17.292969 211.976563 C 17.128906 211.273438 16.953125 210.535156 16.773438 209.769531 C 16.207031 207.394531 16.074219 204.691406 15.839844 202.132813 C 15.613281 198.933594 15.597656 195.910156 16.0625 193.847656 C 16.046875 193.007813 16.03125 192.171875 16.03125 191.324219 C 16.03125 183.722656 16.546875 176.242188 17.527344 168.90625 L 15.894531 172.925781 C 19.078125 158.015625 12.945313 174.191406 12.820313 162.894531 C 14.511719 156.578125 14.546875 151.425781 13.914063 146.707031 C 13.335938 142.03125 12.15625 137.828125 13.386719 134.546875 C 18.617188 121.710938 14.386719 140.421875 18.757813 132.902344 C 21.617188 126.089844 18.332031 128.851563 19.402344 124.191406 C 19.402344 124.191406 20.496094 123.75 21.59375 123.304688 C 22.675781 122.867188 23.871094 122.496094 23.875 122.496094 C 27.980469 115.191406 20.992188 120.800781 24.285156 117.054688 C 25.246094 110.019531 22.132813 118.386719 18.894531 118.84375 C 20.320313 117.660156 24.75 111.511719 24.914063 108.011719 C 24.007813 107.625 19.886719 115.820313 22.074219 110.320313 C 24.695313 105.570313 27.148438 101.945313 29.0625 98.613281 C 30.984375 95.296875 32.378906 92.269531 33.878906 89.382813 C 35.519531 86.597656 37.101563 83.820313 39.039063 80.78125 C 40.007813 79.265625 41.066406 77.675781 42.261719 75.992188 C 43.449219 74.304688 45.042969 72.734375 46.695313 70.933594 L 44.222656 71.066406 C 46.019531 69.648438 47.71875 68.921875 48.714844 66.9375 L 47.0625 67.03125 C 48.832031 64.757813 64.328125 52.140625 74.707031 44.359375 L 68.066406 46.695313 L 78.898438 41.691406 L 76.054688 39.910156 C 77.324219 39.933594 78.878906 39.347656 80.648438 38.363281 C 82.519531 37.515625 84.628906 36.3125 86.886719 34.933594 C 91.40625 32.191406 96.484375 28.609375 101.757813 26.820313 L 100.816406 25.109375 L 107.347656 23.234375 L 104.726563 22.980469 C 110.769531 19.949219 119.390625 20.523438 125.949219 16.410156 C 121.554688 18.65625 119.371094 16.140625 119.320313 14.691406 C 119.320313 14.691406 120.585938 14.457031 122.492188 14.101563 C 124.402344 13.792969 126.882813 13.210938 129.441406 12.929688 C 134.539063 12.492188 139.640625 12.046875 139.640625 12.046875 C 139.742188 10.722656 146.886719 8.433594 143.257813 8.070313 C 144.019531 8.101563 145.027344 8.136719 146.035156 8.175781 C 148.09375 8.421875 150.152344 8.671875 150.152344 8.671875 L 149.265625 7.230469 C 156.976563 5.382813 164.613281 3.996094 172.171875 4.46875 C 175.9375 4.546875 179.660156 4.738281 183.339844 4.980469 C 187.019531 5.433594 190.65625 6.132813 194.269531 6.699219 C 197.878906 7.378906 201.492188 7.652344 205.050781 8.550781 C 208.617188 9.367188 212.1875 10.101563 215.816406 10.695313 C 217.632813 10.960938 219.460938 11.230469 221.300781 11.496094 C 223.113281 11.886719 224.945313 12.226563 226.8125 12.523438 C 230.542969 13.121094 234.382813 13.527344 238.425781 13.699219 L 238.046875 13 C 238.046875 13 239.125 13.433594 240.628906 14.390625 C 242.136719 15.296875 244.15625 16.511719 246.171875 17.71875 C 250.121094 20.132813 254.070313 22.546875 254.070313 22.546875 C 257.285156 23.394531 259.171875 21.414063 264.605469 22.863281 C 260.90625 24.46875 274.179688 27.53125 275.683594 31.855469 C 279.964844 33.042969 276.585938 30.117188 276.125 28.484375 C 280.289063 30.164063 284.050781 32.179688 287.578125 34.363281 C 291.097656 36.570313 294.070313 39.414063 297.210938 42.046875 C 303.632813 47.207031 309.070313 53.605469 316.945313 59.417969 C 308.484375 54.230469 304.417969 51.707031 301.132813 49.339844 C 297.625 47.273438 294.890625 45.425781 289.214844 42.21875 C 300.472656 52.550781 304.289063 52.070313 315.496094 64.175781 C 315.496094 64.175781 315.230469 63.765625 314.835938 63.144531 C 314.425781 62.539063 313.9375 61.667969 313.316406 60.925781 C 312.121094 59.382813 310.929688 57.847656 310.929688 57.847656 C 315.761719 59.007813 319.546875 64.363281 322.941406 68.832031 C 324.59375 71.117188 326.273438 73.109375 327.582031 74.710938 C 328.925781 76.285156 330.242188 77.203125 331.597656 76.964844 C 334.261719 81.253906 336.136719 85.640625 337.703125 90.40625 C 339.226563 95.21875 341.035156 100.007813 344.410156 104.933594 C 344.410156 104.933594 344.738281 103.316406 344.996094 101.699219 C 345.257813 100.070313 345.515625 98.433594 345.515625 98.433594 C 345.515625 98.433594 345.875 99.027344 346.417969 99.914063 C 346.933594 100.820313 347.75 101.957031 348.347656 103.210938 C 349.574219 105.703125 350.800781 108.195313 350.800781 108.195313 L 348.238281 109.640625 C 349.628906 112.894531 350.914063 114.285156 351.765625 114.378906 C 351.804688 116.429688 352.285156 118.460938 352.832031 120.605469 C 353.285156 122.785156 353.941406 125.015625 354.636719 127.320313 C 355.949219 131.953125 357.875 136.765625 357.703125 142.089844 L 359.390625 142.828125 C 359.214844 143.679688 359.089844 144.824219 358.910156 145.144531 C 361.863281 146.457031 363.0625 154.628906 365.367188 154.601563 C 365.214844 151.25 364.5 143.394531 363.15625 144.378906 C 363.492188 139.90625 364.539063 142.304688 365.675781 146.554688 C 366.242188 148.671875 366.828125 151.238281 367.355469 153.613281 C 367.675781 156.027344 367.972656 158.242188 368.15625 159.625 C 365.851563 153.917969 366.703125 161.664063 366.640625 165.03125 C 367.109375 165.503906 367.132813 164.382813 367.632813 163.75 C 371.039063 173.949219 363.324219 178.089844 368.894531 184.691406 L 366.25 186.566406 C 366.234375 186.574219 366.828125 188.585938 367.425781 190.597656 Z M 24.652344 244.566406 C 24.207031 243.238281 23.78125 241.90625 23.367188 240.558594 C 23.71875 242.441406 24.15625 244.367188 24.542969 246.121094 C 24.425781 245.433594 24.496094 244.953125 24.652344 244.566406 Z M 25.628906 135.273438 C 25.390625 135.324219 25.113281 135.460938 24.769531 135.789063 L 23.191406 138.433594 C 23.101563 139.980469 23.441406 140.402344 23.976563 140.15625 C 24.503906 138.515625 25.054688 136.890625 25.628906 135.273438 Z M 33.867188 266.667969 C 31.238281 261.449219 28.875 256.070313 26.792969 250.554688 C 26.84375 250.738281 26.886719 250.90625 26.9375 251.085938 C 27.742188 253.824219 28.445313 256.871094 29.578125 259.855469 C 29.578125 259.855469 29.316406 259.351563 28.925781 258.59375 C 28.523438 257.835938 27.996094 256.824219 27.617188 255.746094 C 26.773438 253.628906 25.933594 251.515625 25.933594 251.515625 C 25.175781 253.769531 26.277344 257.480469 28.316406 260.726563 C 30.207031 264.042969 32.296875 267.199219 32.558594 269.070313 C 33.527344 268.519531 33.738281 267.507813 33.867188 266.667969 Z M 63.523438 60.042969 C 66.269531 58.316406 67.039063 58.402344 69.527344 54.007813 C 66.761719 55.734375 63.742188 58.777344 63.523438 60.042969 Z M 54.058594 303.796875 C 53.859375 302.5625 53.28125 301.089844 52.484375 299.464844 C 51.800781 297.753906 50.894531 295.890625 49.863281 294.007813 C 48.835938 292.121094 47.683594 290.214844 46.503906 288.40625 C 45.308594 286.609375 44.089844 284.898438 43.171875 283.257813 C 43.289063 283.292969 43.398438 283.320313 43.507813 283.335938 C 42.738281 282.160156 41.980469 280.976563 41.238281 279.78125 C 41.246094 280.359375 41.277344 280.980469 41.367188 281.703125 C 41.648438 283.453125 41.96875 285.960938 43.675781 289.148438 L 41.359375 287.703125 C 43.800781 291.585938 43.574219 296.472656 49.296875 300.441406 C 50.757813 299.140625 47.667969 295.066406 46.910156 292.449219 C 47.8125 292.675781 48.347656 294.839844 49.269531 297.339844 C 49.730469 298.582031 50.257813 299.933594 51.015625 301.097656 C 51.839844 302.214844 52.835938 303.191406 54.058594 303.796875 Z M 57.742188 62.441406 C 59.246094 62.183594 60.800781 61.480469 63.070313 58.070313 C 60.679688 59.871094 59.007813 59.945313 57.492188 60.28125 C 56.011719 60.644531 54.515625 61.117188 53.039063 64.175781 C 54.792969 62.464844 56.230469 62.683594 57.742188 62.441406 Z M 69.101563 317.5625 L 64.691406 313.332031 L 65.296875 317.292969 Z M 90.277344 332.3125 C 88.824219 330.472656 88.097656 329.429688 87.851563 328.917969 C 86.140625 327.71875 84.449219 326.496094 82.785156 325.238281 C 82.992188 325.878906 83.179688 326.511719 83.410156 327.140625 C 79.539063 325.40625 77.90625 322.636719 76.242188 320.035156 C 70.238281 315.011719 64.585938 309.582031 59.335938 303.777344 C 60.929688 305.902344 62.566406 308.019531 64.175781 310.164063 C 68.070313 314.464844 72.15625 318.652344 76.390625 322.558594 C 80.941406 326.074219 85.476563 329.554688 90.277344 332.3125 Z M 125.507813 349.570313 L 120.417969 348.78125 L 123.683594 350.160156 Z M 147.917969 27.4375 C 150.410156 26.890625 152.925781 26.398438 155.460938 25.96875 C 153.359375 25.683594 152.089844 24.925781 153.179688 24.402344 C 150.753906 26.042969 148.105469 26.378906 147.917969 27.4375 Z M 162.136719 358.371094 C 161.5625 358.070313 160.972656 357.761719 160.371094 357.449219 C 154.988281 356.6875 149.683594 355.679688 144.476563 354.425781 C 145.820313 355.171875 147.171875 355.921875 148.515625 356.625 C 153.488281 358.914063 158.460938 360.039063 162.136719 358.371094 Z M 192.457031 362.253906 C 192.015625 361.789063 191.121094 361.53125 190.113281 361.375 C 189.546875 360.859375 189.355469 360.226563 189.652344 359.703125 C 190.417969 359.445313 191.066406 359.1875 191.453125 358.929688 C 191.226563 358.941406 190.992188 358.949219 190.769531 358.953125 C 190.191406 359.132813 189.855469 359.398438 189.652344 359.703125 C 188.367188 360.136719 186.585938 360.558594 184.523438 360.941406 C 182.460938 361.234375 180.117188 361.269531 177.714844 361.34375 C 172.917969 361.355469 167.859375 361.492188 164.46875 360.675781 C 162.890625 361.140625 164.199219 362.21875 166.253906 363.355469 C 168.324219 364.28125 171.152344 365.195313 172.4375 365.738281 C 170.746094 361.65625 173.179688 361.859375 176.824219 362.78125 C 178.652344 363.242188 180.800781 363.878906 182.890625 364.25 C 184.972656 364.625 186.992188 364.371094 188.503906 363.652344 C 186.894531 362.984375 182.789063 363.390625 181.738281 362.050781 C 183.546875 361.570313 187.453125 360.953125 190.113281 361.375 C 190.660156 361.914063 191.550781 362.308594 192.457031 362.253906 Z M 215.132813 356.207031 C 211.722656 356.847656 208.273438 357.390625 204.796875 357.820313 C 205.460938 357.972656 206.113281 358.140625 206.75 358.351563 C 208.421875 358.082031 213.34375 357.300781 215.132813 356.207031 Z M 230.964844 23.507813 L 226.949219 22.699219 C 232.210938 23.007813 221.390625 18.082031 229.324219 19.066406 C 232.527344 19.460938 224.527344 15.835938 220.703125 15.707031 C 220.972656 17.382813 228.277344 18.601563 225.378906 19.894531 L 222.230469 19.503906 C 226.953125 20.074219 224 23.96875 230.964844 23.507813 Z M 244.859375 22.769531 C 244.488281 22.425781 244.15625 22.21875 243.808594 21.96875 C 241.519531 19.921875 239.367188 15.628906 233.570313 17.304688 C 236.605469 21.511719 239.496094 18.871094 243.808594 21.96875 C 244.136719 22.277344 244.5 22.558594 244.859375 22.769531 Z M 275.566406 50.253906 L 275.570313 50.691406 C 276.109375 51.042969 276.648438 51.394531 277.1875 51.753906 C 276.667969 51.226563 276.128906 50.71875 275.566406 50.253906 Z M 267.96875 349.753906 L 264.265625 350.28125 C 264.5 349.027344 267.496094 346.304688 261.199219 350.675781 L 264.265625 350.28125 C 264.179688 350.902344 264.765625 351.179688 267.96875 349.753906 Z M 272.519531 341.945313 C 269.964844 343.648438 266.828125 345.777344 264.929688 346.675781 C 265.636719 346.59375 266.753906 346.304688 268 345.820313 C 269.203125 345.261719 270.554688 344.527344 271.816406 343.753906 C 274.339844 342.210938 276.507813 340.476563 276.457031 339.46875 C 277.050781 338.988281 275.078125 340.257813 272.519531 341.945313 Z M 279.890625 331.988281 C 279.789063 330.839844 278.320313 330.941406 276.453125 331.378906 C 276.351563 331.445313 276.25 331.511719 276.148438 331.578125 C 276.890625 331.90625 275.472656 333.820313 279.890625 331.988281 Z M 297.988281 317.976563 C 297.882813 317.878906 297.765625 317.789063 297.679688 317.660156 C 297.714844 317.824219 297.832031 317.914063 297.988281 317.976563 Z M 299.980469 63.265625 L 296.109375 58.222656 L 297.363281 59.078125 L 297.304688 56.667969 C 296.410156 59.082031 294.925781 57.640625 292.988281 55.679688 C 291.109375 53.648438 289.015625 50.703125 287.578125 49.519531 C 290.558594 52.753906 292.558594 59.425781 299.980469 63.265625 Z M 319.242188 302.988281 C 320.269531 302.0625 321.285156 300.675781 322.261719 298.796875 C 316.074219 302.074219 314.269531 301.257813 307.722656 306.316406 L 308.289063 309.488281 C 310.046875 306.957031 307.707031 306.332031 312.652344 303.175781 C 312.996094 304.109375 314.335938 304.882813 316.175781 304.511719 C 317.097656 304.328125 318.140625 303.859375 319.242188 302.988281 Z M 327.742188 293.691406 C 321.277344 296.042969 323.839844 298.914063 322.417969 303.105469 C 322.417969 303.105469 321.980469 303.871094 321.546875 304.644531 C 321.042969 305.359375 320.546875 306.082031 320.546875 306.082031 C 321.589844 305.089844 322.128906 304.054688 322.417969 303.105469 Z M 332.617188 113.199219 C 332.457031 112.714844 332.3125 112.238281 332.214844 111.789063 C 331.917969 110.425781 331.792969 109.324219 332.410156 108.503906 C 331.132813 108.238281 330.578125 108.542969 330.472656 109.257813 C 331.207031 110.5625 331.921875 111.875 332.617188 113.199219 Z M 337.078125 91.496094 C 335.035156 88.953125 335.910156 93.695313 335.507813 95.269531 C 334.503906 94.019531 334.105469 93.011719 333.285156 90.933594 C 330.511719 94.25 337.515625 95.160156 339.097656 101.847656 C 340.746094 100.789063 337.128906 94.175781 337.078125 91.496094 Z M 343.8125 135.488281 C 344.007813 133.78125 342.21875 131.773438 342.414063 130.0625 C 344.265625 129.703125 343.628906 128.972656 342.566406 125.960938 C 342.46875 125.15625 342.257813 124.273438 341.558594 123.171875 C 341.996094 124.273438 342.3125 125.164063 342.566406 125.960938 C 343.085938 129.632813 340.167969 130.300781 343.8125 135.488281 Z M 349.460938 113.617188 L 350.632813 116.355469 C 350.457031 115.261719 350.003906 114.402344 349.460938 113.617188 L 347.609375 109.300781 C 346.195313 110.578125 348.058594 111.605469 349.460938 113.617188 Z M 351.097656 157.070313 C 349.808594 156.574219 349.089844 156.777344 348.316406 156.667969 C 348.753906 158.757813 349.15625 160.867188 349.519531 162.988281 C 349.710938 160.949219 350.1875 158.972656 351.097656 157.070313 Z M 358.554688 235.019531 C 358.789063 235.492188 359.191406 235.796875 359.832031 235.863281 L 359.085938 234.027344 C 358.890625 234.335938 358.738281 234.691406 358.554688 235.019531 Z M 351.214844 260.308594 C 350.449219 261.871094 349.554688 263.140625 348.714844 264.539063 C 349.589844 263.742188 350.8125 262.375 351.214844 260.308594 Z M 85.832031 340.578125 C 85.117188 340.144531 84.632813 339.773438 84.308594 339.457031 C 84.523438 339.71875 84.957031 340.050781 85.832031 340.578125 Z M 85.832031 340.578125 "/>
</g>
<g clip-path="url(#clip2)" clip-rule="nonzero">
<g clip-path="url(#clip3)" clip-rule="evenodd">
<path style=" stroke:none;fill-rule:nonzero;fill:rgb(93.328857%,27.839661%,13.729858%);fill-opacity:1;" d="M 232.683594 261.582031 C 226.328125 250.257813 211.449219 245.816406 199.542969 243.410156 C 199.234375 243.363281 198.941406 243.269531 198.664063 243.132813 C 198.386719 242.992188 198.136719 242.816406 197.914063 242.601563 C 197.6875 242.382813 197.503906 242.136719 197.359375 241.863281 C 197.210938 241.589844 197.109375 241.300781 197.054688 240.996094 C 196.523438 241 196.019531 240.886719 195.546875 240.648438 C 195.070313 240.414063 194.675781 240.078125 194.363281 239.652344 C 191.832031 236.386719 189.742188 231.621094 188.652344 227.664063 C 186.625 220.355469 184.839844 213.03125 183.136719 205.640625 C 181.429688 198.226563 179.28125 190.941406 176.6875 183.785156 C 174.4375 177.578125 171.96875 171.496094 170.285156 165.113281 L 170.222656 164.867188 L 170.136719 164.527344 C 165.613281 164.605469 161.222656 168.007813 156.902344 169.046875 C 152.582031 170.085938 147.636719 170.433594 143.550781 172.433594 C 146.761719 177.695313 148.097656 183.710938 149.59375 189.707031 C 151.292969 196.40625 154.070313 202.746094 155.84375 209.417969 C 157.6875 216.417969 159.988281 223.292969 161.773438 230.324219 C 163.050781 235.371094 165.128906 240.40625 164.699219 245.695313 C 164.5 248.152344 162.246094 248.710938 160.441406 247.9375 C 160.472656 248.285156 160.441406 248.632813 160.351563 248.972656 C 160.261719 249.3125 160.117188 249.625 159.917969 249.914063 C 159.714844 250.203125 159.472656 250.449219 159.1875 250.65625 C 158.902344 250.859375 158.589844 251.007813 158.25 251.105469 C 147.625 254.613281 144.03125 268.988281 145.933594 278.964844 C 148.796875 294.039063 164.125 306.308594 178.15625 310.652344 C 192.847656 315.199219 210.894531 313.144531 221.675781 301.269531 C 224.269531 298.445313 226.511719 295.363281 228.398438 292.027344 C 230.289063 288.691406 231.777344 285.183594 232.863281 281.507813 C 234.613281 275.386719 235.980469 267.460938 232.683594 261.582031 Z M 232.683594 261.582031 "/>
</g>
</g>
<g clip-path="url(#clip4)" clip-rule="nonzero">
<g clip-path="url(#clip5)" clip-rule="evenodd">
<path style=" stroke:none;fill-rule:nonzero;fill:rgb(83.529663%,89.7995%,89.7995%);fill-opacity:1;" d="M 243.589844 257.878906 C 238.082031 245.351563 224.664063 235.792969 210.703125 237.121094 C 210.3125 237.175781 209.929688 237.15625 209.550781 237.058594 C 209.171875 236.957031 208.824219 236.792969 208.511719 236.554688 C 208.199219 236.320313 207.945313 236.03125 207.746094 235.691406 C 207.546875 235.355469 207.421875 234.992188 207.367188 234.601563 C 207.066406 234.582031 206.773438 234.511719 206.492188 234.394531 C 206.210938 234.273438 205.957031 234.113281 205.730469 233.910156 C 205.5 233.710938 205.3125 233.476563 205.164063 233.210938 C 205.011719 232.945313 204.90625 232.664063 204.851563 232.367188 C 200.664063 216.175781 193.941406 200.742188 188.691406 184.898438 C 183.441406 169.054688 178.753906 153.113281 174.003906 137.148438 C 169.378906 121.519531 164.675781 105.945313 160.652344 90.144531 C 158.742188 82.625 157.515625 74.777344 154.898438 67.464844 C 152.613281 61.089844 149.230469 55.222656 147.632813 48.671875 C 138.207031 51.226563 129.148438 55.105469 119.566406 57.042969 C 115.347656 57.90625 111.066406 58.503906 106.875 59.503906 C 104.515625 60.070313 101.636719 60.632813 99.351563 61.894531 C 102.242188 66.09375 103.359375 71.558594 105.0625 76.257813 C 107.65625 83.367188 109.449219 90.640625 111.367188 97.949219 C 115.527344 113.808594 120.226563 129.511719 125.121094 145.152344 C 134.929688 176.425781 145.351563 207.488281 153.441406 239.257813 C 153.570313 239.675781 153.621094 240.105469 153.585938 240.542969 C 153.550781 240.980469 153.4375 241.398438 153.242188 241.789063 C 153.046875 242.183594 152.785156 242.527344 152.457031 242.820313 C 152.132813 243.113281 151.761719 243.335938 151.347656 243.484375 C 146.390625 245.457031 142.144531 248.445313 138.617188 252.445313 C 138.566406 252.933594 138.417969 253.390625 138.167969 253.8125 C 136.183594 257.226563 134.828125 260.871094 134.09375 264.75 C 133.363281 268.628906 133.296875 272.519531 133.898438 276.421875 C 135.066406 284.003906 138.535156 290.394531 143.199219 296.378906 C 152.144531 307.828125 164.195313 320.632813 178.777344 324.445313 C 203.488281 330.90625 229.753906 317.628906 240.804688 294.847656 C 246.113281 283.84375 248.664063 269.429688 243.589844 257.878906 Z M 240.78125 265.195313 C 241.679688 271.207031 241.214844 277.109375 239.390625 282.910156 C 235.09375 297.046875 225.867188 310.347656 211.761719 315.964844 C 196.945313 321.867188 179.730469 320.335938 165.914063 312.519531 C 153.128906 305.289063 140.085938 292.679688 139.039063 277.144531 C 138.1875 264.460938 142.917969 249.148438 156.140625 244.777344 C 156.820313 244.535156 157.503906 244.523438 158.1875 244.746094 C 158.183594 244.589844 158.183594 244.433594 158.195313 244.28125 C 158.386719 242.019531 157.441406 239.507813 156.832031 237.371094 C 156.035156 234.628906 155.335938 231.875 154.625 229.109375 C 152.917969 222.527344 150.976563 216.011719 148.949219 209.523438 C 146.992188 203.253906 144.566406 197.171875 143.042969 190.769531 C 141.589844 184.742188 140.207031 178.726563 136.382813 173.699219 C 135.03125 171.925781 135.867188 170.078125 137.355469 169.207031 C 137.59375 168.429688 138.070313 167.84375 138.785156 167.457031 C 144.355469 164.167969 150.722656 164.210938 156.707031 162.179688 C 162.34375 160.269531 167.28125 156.847656 173.496094 158.191406 C 173.859375 158.257813 174.195313 158.382813 174.515625 158.566406 C 174.832031 158.753906 175.105469 158.992188 175.339844 159.277344 C 175.570313 159.5625 175.746094 159.878906 175.867188 160.226563 C 175.984375 160.574219 176.039063 160.933594 176.027344 161.300781 C 176.207031 161.601563 176.335938 161.917969 176.421875 162.257813 C 178.105469 168.902344 180.6875 175.210938 183.023438 181.652344 C 185.621094 188.800781 187.765625 196.082031 189.460938 203.492188 C 191.15625 210.859375 192.691406 218.304688 194.972656 225.515625 C 196.078125 228.988281 197.65625 233.019531 199.925781 235.953125 C 200.132813 236.214844 200.296875 236.5 200.417969 236.808594 C 200.597656 236.820313 200.773438 236.84375 200.949219 236.875 C 211.964844 239.082031 224.136719 242.925781 232.511719 250.753906 C 236.675781 254.667969 239.855469 259.488281 240.78125 265.195313 Z M 240.78125 265.195313 "/>
</g>
</g>
<g clip-path="url(#clip6)" clip-rule="nonzero">
<g clip-path="url(#clip7)" clip-rule="evenodd">
<path style=" stroke:none;fill-rule:nonzero;fill:rgb(0%,0%,0%);fill-opacity:1;" d="M 211.199219 230.40625 L 211.15625 230.242188 L 210.859375 229.066406 L 210.757813 228.664063 C 206.660156 213.449219 200.40625 198.839844 195.394531 183.894531 C 190.234375 168.476563 185.652344 152.871094 181.011719 137.289063 C 176.511719 122.007813 171.8125 106.796875 167.839844 91.367188 C 165.871094 83.738281 164.371094 75.902344 162.214844 68.308594 C 160.265625 61.457031 156.128906 55.257813 154.316406 48.378906 C 154.828125 47.964844 155.1875 47.445313 155.386719 46.816406 C 155.585938 46.1875 155.597656 45.558594 155.421875 44.921875 L 154.972656 43.160156 C 154.488281 41.246094 152.417969 40.726563 150.753906 41.058594 C 138.96875 43.460938 127.964844 48.714844 116.167969 50.96875 C 108.414063 52.441406 98.222656 52.957031 92.351563 58.953125 C 90.820313 60.527344 91.363281 62.445313 92.664063 63.539063 C 92.6875 63.644531 92.710938 63.746094 92.742188 63.84375 L 93.191406 65.609375 C 93.285156 66.101563 93.5 66.539063 93.835938 66.917969 C 94.167969 67.296875 94.574219 67.566406 95.050781 67.722656 C 96.777344 71.3125 97.671875 75.464844 98.980469 79.070313 C 101.617188 86.316406 103.390625 93.789063 105.335938 101.21875 C 109.488281 117.046875 114.242188 132.761719 119.140625 148.398438 C 128.5 178.304688 138.457031 208.042969 146.347656 238.414063 C 141.152344 240.894531 136.695313 244.335938 132.976563 248.730469 C 132.457031 249.324219 132.191406 250.019531 132.179688 250.808594 C 124.515625 264.132813 125.550781 280.457031 133.085938 293.578125 C 136.75 299.96875 142.0625 305.757813 147.132813 311.054688 C 152.496094 316.714844 158.507813 321.574219 165.167969 325.632813 C 188.402344 339.609375 218.132813 331.988281 236.109375 313.128906 C 248.371094 300.265625 254.671875 282.160156 252.320313 264.488281 C 249.765625 245.328125 230.574219 229.066406 211.199219 230.40625 Z M 240.78125 294.804688 C 229.738281 317.613281 203.464844 330.863281 178.753906 324.398438 C 164.171875 320.59375 152.117188 307.785156 143.175781 296.332031 C 138.53125 290.347656 135.035156 283.960938 133.875 276.378906 C 133.273438 272.476563 133.339844 268.585938 134.070313 264.707031 C 134.804688 260.828125 136.160156 257.179688 138.144531 253.765625 C 138.394531 253.347656 138.542969 252.890625 138.589844 252.402344 C 142.121094 248.402344 146.367188 245.414063 151.324219 243.441406 C 151.738281 243.289063 152.105469 243.070313 152.433594 242.777344 C 152.761719 242.484375 153.023438 242.140625 153.21875 241.746094 C 153.414063 241.351563 153.527344 240.9375 153.5625 240.5 C 153.597656 240.0625 153.546875 239.632813 153.417969 239.214844 C 145.355469 207.4375 134.886719 176.386719 125.097656 145.105469 C 120.203125 129.464844 115.503906 113.777344 111.34375 97.90625 C 109.425781 90.59375 107.644531 83.320313 105.039063 76.214844 C 103.335938 71.511719 102.21875 66.050781 99.328125 61.851563 C 101.609375 60.589844 104.492188 60.027344 106.851563 59.460938 C 111.042969 58.460938 115.324219 57.863281 119.542969 57 C 129.117188 55.039063 138.175781 51.160156 147.609375 48.628906 C 149.230469 55.203125 152.636719 61.066406 154.882813 67.449219 C 157.5 74.761719 158.726563 82.613281 160.632813 90.132813 C 164.644531 105.933594 169.363281 121.507813 173.988281 137.132813 C 178.71875 153.101563 183.441406 169.074219 188.675781 184.886719 C 193.910156 200.695313 200.648438 216.160156 204.835938 232.351563 C 204.890625 232.648438 204.996094 232.933594 205.144531 233.195313 C 205.296875 233.460938 205.484375 233.695313 205.714844 233.898438 C 205.941406 234.101563 206.195313 234.261719 206.476563 234.378906 C 206.757813 234.496094 207.046875 234.566406 207.351563 234.589844 C 207.40625 234.980469 207.53125 235.351563 207.730469 235.691406 C 207.933594 236.035156 208.191406 236.324219 208.507813 236.5625 C 208.828125 236.800781 209.179688 236.96875 209.566406 237.0625 C 209.949219 237.160156 210.339844 237.175781 210.730469 237.113281 C 224.6875 235.761719 238.109375 245.34375 243.621094 257.871094 C 248.664063 269.429688 246.113281 283.84375 240.789063 294.828125 Z M 240.78125 294.804688 "/>
</g>
</g>
<g clip-path="url(#clip8)" clip-rule="nonzero">
<g clip-path="url(#clip9)" clip-rule="evenodd">
<path style=" stroke:none;fill-rule:nonzero;fill:rgb(0%,0%,0%);fill-opacity:1;" d="M 232.519531 250.789063 C 224.132813 242.914063 211.972656 239.117188 200.957031 236.910156 C 200.78125 236.878906 200.605469 236.855469 200.429688 236.84375 C 200.304688 236.535156 200.140625 236.25 199.9375 235.988281 C 197.667969 233.054688 196.09375 229.050781 194.980469 225.550781 C 192.703125 218.339844 191.164063 210.890625 189.472656 203.527344 C 187.773438 196.109375 185.621094 188.824219 183.019531 181.671875 C 180.6875 175.230469 178.105469 168.921875 176.417969 162.277344 C 176.335938 161.9375 176.203125 161.621094 176.027344 161.320313 C 176.035156 160.953125 175.984375 160.59375 175.863281 160.246094 C 175.746094 159.898438 175.570313 159.582031 175.335938 159.292969 C 175.105469 159.007813 174.832031 158.773438 174.511719 158.585938 C 174.195313 158.402344 173.855469 158.273438 173.492188 158.210938 C 167.28125 156.867188 162.339844 160.289063 156.703125 162.199219 C 150.722656 164.230469 144.351563 164.175781 138.785156 167.476563 C 138.066406 167.863281 137.589844 168.449219 137.355469 169.226563 C 135.871094 170.117188 135.027344 171.941406 136.378906 173.71875 C 140.207031 178.746094 141.585938 184.761719 143.039063 190.789063 C 144.582031 197.1875 146.988281 203.273438 148.949219 209.542969 C 150.976563 216.03125 152.914063 222.546875 154.621094 229.128906 C 155.324219 231.898438 156.023438 234.652344 156.832031 237.390625 C 157.441406 239.527344 158.382813 242.039063 158.195313 244.296875 C 158.183594 244.453125 158.179688 244.609375 158.1875 244.761719 C 157.5 244.542969 156.816406 244.554688 156.136719 244.796875 C 142.917969 249.167969 138.183594 264.480469 139.039063 277.164063 C 140.082031 292.699219 153.128906 305.308594 165.910156 312.539063 C 179.773438 320.359375 196.945313 321.886719 211.757813 315.984375 C 225.867188 310.367188 235.097656 297.066406 239.390625 282.929688 C 241.214844 277.128906 241.675781 271.226563 240.78125 265.214844 C 239.855469 259.488281 236.675781 254.667969 232.519531 250.789063 Z M 232.871094 281.507813 C 231.78125 285.183594 230.292969 288.691406 228.40625 292.027344 C 226.515625 295.363281 224.277344 298.445313 221.683594 301.269531 C 210.902344 313.144531 192.851563 315.195313 178.164063 310.652344 C 164.136719 306.304688 148.800781 294.039063 145.941406 278.964844 C 144.035156 268.984375 147.640625 254.609375 158.257813 251.105469 C 158.597656 251.007813 158.90625 250.859375 159.195313 250.652344 C 159.480469 250.449219 159.722656 250.203125 159.921875 249.914063 C 160.121094 249.625 160.265625 249.308594 160.359375 248.96875 C 160.449219 248.628906 160.476563 248.285156 160.449219 247.933594 C 162.257813 248.726563 164.507813 248.15625 164.707031 245.691406 C 165.136719 240.40625 163.0625 235.367188 161.777344 230.324219 C 159.988281 223.273438 157.6875 216.417969 155.851563 209.417969 C 154.089844 202.742188 151.300781 196.402344 149.601563 189.707031 C 148.082031 183.714844 146.753906 177.699219 143.554688 172.429688 C 147.644531 170.429688 152.542969 170.097656 156.910156 169.042969 C 161.273438 167.992188 165.59375 164.609375 170.144531 164.523438 L 170.292969 165.113281 C 171.972656 171.496094 174.441406 177.578125 176.691406 183.785156 C 179.285156 190.9375 181.4375 198.222656 183.140625 205.640625 C 184.847656 213.027344 186.628906 220.355469 188.65625 227.664063 C 189.75 231.617188 191.839844 236.382813 194.367188 239.652344 C 194.683594 240.078125 195.078125 240.410156 195.550781 240.648438 C 196.027344 240.886719 196.53125 241 197.058594 240.992188 C 197.117188 241.300781 197.21875 241.589844 197.363281 241.863281 C 197.511719 242.136719 197.695313 242.382813 197.917969 242.597656 C 198.140625 242.816406 198.390625 242.992188 198.671875 243.128906 C 198.949219 243.269531 199.242188 243.359375 199.546875 243.40625 C 211.457031 245.816406 226.332031 250.257813 232.6875 261.582031 C 235.980469 267.460938 234.613281 275.386719 232.871094 281.507813 Z M 232.871094 281.507813 "/>
</g>
</g>
<g clip-path="url(#clip10)" clip-rule="nonzero">
<g clip-path="url(#clip11)" clip-rule="evenodd">
<path style=" stroke:none;fill-rule:nonzero;fill:rgb(0%,0%,0%);fill-opacity:1;" d="M 255.394531 212.097656 C 247.785156 215.328125 239.195313 216.863281 231.335938 217.890625 C 227.363281 218.40625 218.207031 218.441406 216.484375 223.132813 C 215.039063 227.050781 220.710938 230.066406 222.308594 226.386719 L 222.933594 226.128906 C 224.042969 225.761719 225.171875 225.488281 226.328125 225.3125 C 228.839844 224.867188 231.390625 224.613281 233.921875 224.242188 C 241.894531 223.089844 250.058594 221.582031 257.507813 218.429688 C 261.453125 216.757813 259.363281 210.417969 255.394531 212.097656 Z M 255.394531 212.097656 "/>
</g>
</g>
<g clip-path="url(#clip12)" clip-rule="nonzero">
<g clip-path="url(#clip13)" clip-rule="evenodd">
<path style=" stroke:none;fill-rule:nonzero;fill:rgb(0%,0%,0%);fill-opacity:1;" d="M 229.652344 206.75 C 224.753906 208.085938 220.160156 210.320313 215.265625 211.648438 C 211.117188 212.773438 213.257813 219.089844 217.398438 217.984375 C 222.296875 216.648438 226.890625 214.414063 231.785156 213.085938 C 235.929688 211.945313 233.789063 205.628906 229.652344 206.75 Z M 229.652344 206.75 "/>
</g>
</g>
<g clip-path="url(#clip14)" clip-rule="nonzero">
<g clip-path="url(#clip15)" clip-rule="evenodd">
<path style=" stroke:none;fill-rule:nonzero;fill:rgb(0%,0%,0%);fill-opacity:1;" d="M 231.640625 200.035156 C 230.53125 197.558594 227.550781 197.515625 225.992188 198.824219 C 225.46875 199 224.933594 199.15625 224.402344 199.300781 C 222.679688 199.789063 220.929688 200.183594 219.203125 200.621094 C 216.574219 201.285156 213.253906 201.828125 211.070313 203.488281 C 207.652344 206.058594 211.304688 211.640625 214.753906 209.046875 C 217.0625 207.347656 234.449219 206.257813 231.640625 200.035156 Z M 231.640625 200.035156 "/>
</g>
</g>
<g clip-path="url(#clip16)" clip-rule="nonzero">
<g clip-path="url(#clip17)" clip-rule="evenodd">
<path style=" stroke:none;fill-rule:nonzero;fill:rgb(0%,0%,0%);fill-opacity:1;" d="M 232.671875 186.601563 C 224.347656 188.667969 215.40625 189.726563 208.253906 194.855469 C 204.765625 197.347656 208.429688 202.941406 211.941406 200.410156 C 218.550781 195.691406 227.105469 194.828125 234.800781 192.925781 C 238.96875 191.886719 236.820313 185.574219 232.671875 186.601563 Z M 232.671875 186.601563 "/>
</g>
</g>
<g clip-path="url(#clip18)" clip-rule="nonzero">
<g clip-path="url(#clip19)" clip-rule="evenodd">
<path style=" stroke:none;fill-rule:nonzero;fill:rgb(0%,0%,0%);fill-opacity:1;" d="M 219.714844 179.882813 C 214.261719 181.359375 209.222656 183.835938 204.257813 186.492188 C 200.46875 188.515625 204.175781 194.058594 207.941406 192.046875 C 212.351563 189.566406 216.984375 187.621094 221.84375 186.207031 C 225.992188 185.085938 223.851563 178.769531 219.714844 179.882813 Z M 219.714844 179.882813 "/>
</g>
</g>
<g clip-path="url(#clip20)" clip-rule="nonzero">
<g clip-path="url(#clip21)" clip-rule="evenodd">
<path style=" stroke:none;fill-rule:nonzero;fill:rgb(0%,0%,0%);fill-opacity:1;" d="M 215.566406 170.929688 L 201.46875 174.507813 C 197.300781 175.5625 199.457031 181.894531 203.601563 180.84375 L 217.699219 177.265625 C 221.859375 176.199219 219.707031 169.878906 215.566406 170.929688 Z M 215.566406 170.929688 "/>
</g>
</g>
<g clip-path="url(#clip22)" clip-rule="nonzero">
<g clip-path="url(#clip23)" clip-rule="evenodd">
<path style=" stroke:none;fill-rule:nonzero;fill:rgb(0%,0%,0%);fill-opacity:1;" d="M 238.292969 155.84375 C 224.476563 157.839844 209.738281 159.660156 197.28125 166.378906 C 193.5 168.410156 197.203125 173.960938 200.964844 171.933594 C 211.460938 166.277344 224.074219 164.5625 235.851563 162.902344 C 236.691406 163.417969 237.582031 163.523438 238.519531 163.21875 C 240.207031 162.71875 241.46875 161.683594 241.75 159.898438 C 242.042969 157.898438 240.5625 155.519531 238.292969 155.84375 Z M 238.292969 155.84375 "/>
</g>
</g>
<g clip-path="url(#clip24)" clip-rule="nonzero">
<g clip-path="url(#clip25)" clip-rule="evenodd">
<path style=" stroke:none;fill-rule:nonzero;fill:rgb(0%,0%,0%);fill-opacity:1;" d="M 212.851563 150.359375 C 206.457031 151.980469 199.34375 153.011719 194.25 157.535156 C 191.039063 160.386719 196.046875 164.800781 199.226563 161.976563 C 203.136719 158.484375 210.074219 157.90625 214.980469 156.6875 C 219.148438 155.648438 217 149.332031 212.851563 150.359375 Z M 212.851563 150.359375 "/>
</g>
</g>
<g clip-path="url(#clip26)" clip-rule="nonzero">
<g clip-path="url(#clip27)" clip-rule="evenodd">
<path style=" stroke:none;fill-rule:nonzero;fill:rgb(0%,0%,0%);fill-opacity:1;" d="M 206.652344 143.179688 C 204.148438 143.8125 201.65625 144.488281 199.195313 145.265625 C 197.054688 145.9375 194.058594 146.71875 192.601563 148.574219 C 189.96875 151.949219 194.925781 156.40625 197.578125 153.015625 C 197.542969 153.023438 197.875 152.839844 198.632813 152.527344 C 199.894531 152.015625 201.207031 151.613281 202.507813 151.21875 C 204.585938 150.582031 206.683594 150.035156 208.78125 149.503906 C 212.945313 148.441406 210.792969 142.128906 206.652344 143.179688 Z M 206.652344 143.179688 "/>
</g>
</g>
<g clip-path="url(#clip28)" clip-rule="nonzero">
<g clip-path="url(#clip29)" clip-rule="evenodd">
<path style=" stroke:none;fill-rule:nonzero;fill:rgb(0%,0%,0%);fill-opacity:1;" d="M 213.660156 128.898438 C 209.484375 130.800781 204.832031 131.640625 200.464844 132.988281 C 196.28125 134.285156 191.433594 136.003906 189.152344 140.027344 C 187.019531 143.773438 192.972656 146.785156 195.085938 143.0625 C 196.515625 140.542969 201.554688 139.613281 204.0625 138.863281 C 207.960938 137.695313 212.066406 136.910156 215.789063 135.222656 C 219.65625 133.460938 217.578125 127.113281 213.660156 128.898438 Z M 213.660156 128.898438 "/>
</g>
</g>
<g clip-path="url(#clip30)" clip-rule="nonzero">
<g clip-path="url(#clip31)" clip-rule="evenodd">
<path style=" stroke:none;fill-rule:nonzero;fill:rgb(0%,0%,0%);fill-opacity:1;" d="M 204.085938 123.195313 C 198.375 124.644531 192.660156 126.09375 187.347656 128.691406 C 185.679688 129.511719 184.664063 131.011719 185.253906 132.917969 C 185.6875 134.328125 186.5625 135.089844 187.78125 135.847656 C 189.917969 137.179688 191.84375 135.691406 192.328125 133.757813 C 196.808594 131.925781 201.515625 130.714844 206.214844 129.523438 C 210.378906 128.460938 208.226563 122.144531 204.085938 123.195313 Z M 204.085938 123.195313 "/>
</g>
</g>
<g clip-path="url(#clip32)" clip-rule="nonzero">
<g clip-path="url(#clip33)" clip-rule="evenodd">
<path style=" stroke:none;fill-rule:nonzero;fill:rgb(0%,0%,0%);fill-opacity:1;" d="M 200.386719 116.007813 C 195.039063 117.289063 189.277344 117.617188 185.160156 121.699219 C 182.101563 124.734375 187.09375 129.15625 190.136719 126.140625 C 193.0625 123.242188 198.71875 123.238281 202.515625 122.332031 C 206.695313 121.328125 204.535156 115.015625 200.386719 116.007813 Z M 200.386719 116.007813 "/>
</g>
</g>
<g clip-path="url(#clip34)" clip-rule="nonzero">
<g clip-path="url(#clip35)" clip-rule="evenodd">
<path style=" stroke:none;fill-rule:nonzero;fill:rgb(0%,0%,0%);fill-opacity:1;" d="M 222.21875 96.089844 C 213.527344 98.355469 205.214844 101.738281 197.117188 105.582031 C 191.71875 108.144531 184.667969 109.207031 180.726563 114.070313 C 178.023438 117.402344 182.988281 121.859375 185.703125 118.511719 C 187.367188 116.453125 189.957031 115.558594 192.386719 114.660156 C 195.472656 113.496094 198.445313 112.273438 201.429688 110.878906 C 208.808594 107.355469 216.445313 104.535156 224.34375 102.414063 C 228.507813 101.328125 226.359375 95.011719 222.21875 96.089844 Z M 222.21875 96.089844 "/>
</g>
</g>
<g clip-path="url(#clip36)" clip-rule="nonzero">
<g clip-path="url(#clip37)" clip-rule="evenodd">
<path style=" stroke:none;fill-rule:nonzero;fill:rgb(0%,0%,0%);fill-opacity:1;" d="M 195.609375 94.710938 C 192.140625 96.171875 188.453125 97.105469 184.929688 98.429688 C 182.1875 99.457031 177.621094 101.015625 177.121094 104.425781 C 176.539063 108.460938 182.425781 109.957031 183.511719 106.394531 C 183.902344 106.132813 184.308594 105.90625 184.738281 105.707031 C 186.339844 105.003906 187.96875 104.378906 189.632813 103.839844 C 192.328125 102.902344 195.113281 102.164063 197.746094 101.058594 C 201.675781 99.378906 199.582031 93.046875 195.609375 94.710938 Z M 195.609375 94.710938 "/>
</g>
</g>
<g clip-path="url(#clip38)" clip-rule="nonzero">
<g clip-path="url(#clip39)" clip-rule="evenodd">
<path style=" stroke:none;fill-rule:nonzero;fill:rgb(0%,0%,0%);fill-opacity:1;" d="M 190.984375 87.316406 C 186.496094 90.429688 180.066406 89.609375 176.246094 93.949219 C 173.40625 97.171875 178.378906 101.617188 181.222656 98.390625 C 182.652344 96.777344 185.558594 96.402344 187.542969 95.847656 C 190.03125 95.15625 192.527344 94.359375 194.667969 92.871094 C 198.195313 90.425781 194.523438 84.855469 190.984375 87.316406 Z M 190.984375 87.316406 "/>
</g>
</g>
<g clip-path="url(#clip40)" clip-rule="nonzero">
<g clip-path="url(#clip41)" clip-rule="evenodd">
<path style=" stroke:none;fill-rule:nonzero;fill:rgb(0%,0%,0%);fill-opacity:1;" d="M 185.460938 78.632813 C 180.640625 80.773438 173.539063 82.136719 171.625 87.6875 C 170.226563 91.757813 176.753906 93.109375 178.148438 89.097656 C 178.394531 88.371094 181.890625 87.359375 182.691406 87.039063 C 185.363281 85.984375 187.984375 84.789063 190.605469 83.605469 C 194.503906 81.847656 198.40625 80.070313 202.445313 78.726563 L 200.808594 72.261719 C 195.542969 73.957031 190.527344 76.390625 185.460938 78.632813 Z M 185.460938 78.632813 "/>
</g>
</g>
<g clip-path="url(#clip42)" clip-rule="nonzero">
<g clip-path="url(#clip43)" clip-rule="evenodd">
<path style=" stroke:none;fill-rule:nonzero;fill:rgb(0%,0%,0%);fill-opacity:1;" d="M 185.527344 69.042969 C 184.429688 70.648438 181.210938 71.386719 179.507813 71.976563 C 176.933594 72.867188 174.269531 73.511719 171.726563 74.507813 C 167.746094 76.070313 169.847656 82.40625 173.859375 80.84375 C 179.847656 78.488281 187.5625 77.800781 191.464844 72.089844 C 193.890625 68.527344 187.917969 65.546875 185.527344 69.042969 Z M 185.527344 69.042969 "/>
</g>
</g>
<g clip-path="url(#clip44)" clip-rule="nonzero">
<g clip-path="url(#clip45)" clip-rule="evenodd">
<path style=" stroke:none;fill-rule:nonzero;fill:rgb(0%,0%,0%);fill-opacity:1;" d="M 186.074219 57.113281 C 179.988281 58.65625 169.175781 59.933594 166.992188 66.953125 C 165.722656 71.070313 172.253906 72.433594 173.515625 68.363281 C 173.832031 67.339844 178.546875 66.023438 179.769531 65.632813 C 182.535156 64.738281 185.378906 64.109375 188.195313 63.414063 C 192.371094 62.398438 190.222656 56.085938 186.074219 57.113281 Z M 186.074219 57.113281 "/>
</g>
</g>
<g clip-path="url(#clip46)" clip-rule="nonzero">
<g clip-path="url(#clip47)" clip-rule="evenodd">
<path style=" stroke:none;fill-rule:nonzero;fill:rgb(0%,0%,0%);fill-opacity:1;" d="M 195.53125 41.144531 C 193.144531 43.050781 190.226563 44.007813 187.382813 45.019531 C 184.726563 45.957031 182.117188 46.980469 179.402344 47.75 C 173.566406 49.378906 167.136719 50.515625 162.589844 54.894531 C 159.992188 57.429688 163.1875 61.027344 166.144531 60.277344 L 167.90625 59.832031 C 168.488281 59.722656 168.980469 59.453125 169.390625 59.023438 C 169.796875 58.59375 170.039063 58.085938 170.121094 57.5 C 173.96875 55.410156 179.085938 54.789063 182.988281 53.65625 C 188.308594 52.097656 194.839844 50.191406 199.214844 46.699219 C 202.542969 44.042969 198.898438 38.457031 195.53125 41.144531 Z M 195.53125 41.144531 "/>
</g>
</g>
</g>
</svg>
